<svg width="14" height="12" viewBox="0 0 14 12" fill="none" xmlns="http://www.w3.org/2000/svg">
<path d="M12.5508 3.03223C13.0977 2.62207 13.5898 2.12988 13.9727 1.55566C13.4805 1.77441 12.9062 1.93848 12.332 1.99316C12.9336 1.6377 13.3711 1.09082 13.5898 0.407227C13.043 0.735352 12.4141 0.981445 11.7852 1.11816C11.2383 0.543945 10.5 0.21582 9.67969 0.21582C8.09375 0.21582 6.80859 1.50098 6.80859 3.08691C6.80859 3.30566 6.83594 3.52441 6.89062 3.74316C4.51172 3.60645 2.37891 2.45801 0.957031 0.735352C0.710938 1.14551 0.574219 1.6377 0.574219 2.18457C0.574219 3.16895 1.06641 4.04395 1.85938 4.56348C1.39453 4.53613 0.929688 4.42676 0.546875 4.20801V4.23535C0.546875 5.62988 1.53125 6.77832 2.84375 7.05176C2.625 7.10645 2.35156 7.16113 2.10547 7.16113C1.91406 7.16113 1.75 7.13379 1.55859 7.10645C1.91406 8.25488 2.98047 9.0752 4.23828 9.10254C3.25391 9.86816 2.02344 10.333 0.683594 10.333C0.4375 10.333 0.21875 10.3057 0 10.2783C1.25781 11.0986 2.76172 11.5635 4.40234 11.5635C9.67969 11.5635 12.5508 7.21582 12.5508 3.41504C12.5508 3.27832 12.5508 3.16895 12.5508 3.03223Z" fill="#2471FB"/>
</svg>
