<svg width="16" height="12" viewBox="0 0 16 12" fill="none" xmlns="http://www.w3.org/2000/svg">
<path d="M15.1367 2.29395C14.9727 1.6377 14.4531 1.11816 13.8242 0.954102C12.6484 0.625977 8 0.625977 8 0.625977C8 0.625977 3.32422 0.625977 2.14844 0.954102C1.51953 1.11816 1 1.6377 0.835938 2.29395C0.507812 3.44238 0.507812 5.90332 0.507812 5.90332C0.507812 5.90332 0.507812 8.33691 0.835938 9.5127C1 10.1689 1.51953 10.6611 2.14844 10.8252C3.32422 11.126 8 11.126 8 11.126C8 11.126 12.6484 11.126 13.8242 10.8252C14.4531 10.6611 14.9727 10.1689 15.1367 9.5127C15.4648 8.33691 15.4648 5.90332 15.4648 5.90332C15.4648 5.90332 15.4648 3.44238 15.1367 2.29395ZM6.46875 8.11816V3.68848L10.3516 5.90332L6.46875 8.11816Z" fill="#2471FB"/>
</svg>
