<svg width="14" height="14" viewBox="0 0 14 14" fill="none" xmlns="http://www.w3.org/2000/svg">
<path d="M5.49609 8.24316C5.87891 8.24316 6.17969 7.94238 6.17969 7.55957C6.17969 7.2041 5.87891 6.87598 5.49609 6.87598C5.11328 6.87598 4.8125 7.2041 4.8125 7.55957C4.8125 7.94238 5.11328 8.24316 5.49609 8.24316ZM13.7812 6.87598C13.7812 3.12988 10.7461 0.0947266 7 0.0947266C3.25391 0.0947266 0.21875 3.12988 0.21875 6.87598C0.21875 10.6221 3.25391 13.6572 7 13.6572C10.7461 13.6572 13.7812 10.6221 13.7812 6.87598ZM10.1445 5.75488C11.1016 5.75488 11.4023 7.04004 10.5547 7.47754C10.582 7.61426 10.6094 7.75098 10.6094 7.91504C10.6094 9.33691 8.99609 10.5127 7 10.5127C5.00391 10.5127 3.39062 9.33691 3.39062 7.91504C3.39062 7.75098 3.39062 7.61426 3.41797 7.47754C2.57031 7.04004 2.87109 5.75488 3.82812 5.75488C4.07422 5.75488 4.32031 5.86426 4.48438 6.02832C5.08594 5.61816 5.90625 5.34473 6.80859 5.31738L7.35547 2.93848C7.35547 2.85645 7.4375 2.80176 7.51953 2.8291L9.21484 3.18457C9.32422 2.96582 9.54297 2.8291 9.81641 2.8291C10.1992 2.8291 10.5 3.12988 10.5 3.5127C10.5 3.86816 10.1992 4.16895 9.81641 4.16895C9.43359 4.16895 9.13281 3.86816 9.13281 3.5127L7.62891 3.15723L7.13672 5.31738C8.06641 5.34473 8.88672 5.61816 9.48828 6.02832C9.67969 5.86426 9.89844 5.75488 10.1445 5.75488ZM8.25781 8.92676C7.76562 9.44629 6.17969 9.41895 5.71484 8.92676C5.66016 8.87207 5.55078 8.87207 5.46875 8.92676C5.41406 9.00879 5.41406 9.11816 5.46875 9.17285C6.09766 9.80176 7.875 9.80176 8.50391 9.17285C8.55859 9.11816 8.55859 9.00879 8.50391 8.92676C8.42188 8.87207 8.33984 8.87207 8.25781 8.92676ZM8.47656 6.87598C8.09375 6.87598 7.79297 7.2041 7.79297 7.55957C7.79297 7.94238 8.12109 8.24316 8.47656 8.24316C8.85938 8.24316 9.16016 7.94238 9.16016 7.55957C9.16016 7.2041 8.85938 6.87598 8.47656 6.87598Z" fill="#2471FB"/>
</svg>
