<svg width="13" height="14" viewBox="0 0 13 14" fill="none" xmlns="http://www.w3.org/2000/svg">
<path d="M3.875 11.251C3.875 10.2939 3.08203 9.50098 2.125 9.50098C1.14062 9.50098 0.375 10.2939 0.375 11.251C0.375 12.2354 1.14062 13.001 2.125 13.001C3.08203 13.001 3.875 12.2354 3.875 11.251ZM8.66016 12.5635C8.44141 8.3252 5.05078 4.93457 0.8125 4.71582C0.566406 4.68848 0.375 4.90723 0.375 5.15332V6.46582C0.375 6.68457 0.539062 6.87598 0.757812 6.90332C3.82031 7.09473 6.28125 9.55566 6.47266 12.6182C6.5 12.8369 6.69141 13.001 6.91016 13.001H8.22266C8.46875 13.001 8.6875 12.8096 8.66016 12.5635ZM12.5977 12.5635C12.3789 6.16504 7.23828 0.99707 0.8125 0.77832C0.566406 0.750977 0.375 0.942383 0.375 1.21582V2.52832C0.375 2.74707 0.539062 2.93848 0.785156 2.96582C6.00781 3.15723 10.2188 7.36816 10.4102 12.5908C10.4375 12.8369 10.6289 13.0283 10.8477 13.0283H12.1602C12.4336 13.001 12.625 12.8096 12.5977 12.5635Z" fill="#2471FB"/>
</svg>
