<svg width="9" height="15" viewBox="0 0 9 15" fill="none" xmlns="http://www.w3.org/2000/svg">
<path d="M8.57422 14.0283C8.68359 13.9189 8.65625 13.7549 8.60156 13.6182L8 11.8682C7.94531 11.7314 7.89062 11.6768 7.78125 11.6494C7.69922 11.6221 7.5625 11.6494 7.45312 11.7041C6.22266 12.1963 5.59375 11.6768 5.59375 10.7197V7.08301H7.86328C8.02734 7.08301 8.13672 6.97363 8.13672 6.80957V4.59473C8.13672 4.43066 8.02734 4.32129 7.86328 4.32129H5.59375V1.14941C5.59375 1.0127 5.48438 0.875977 5.32031 0.875977H3.37891C3.13281 0.875977 2.96875 1.04004 2.94141 1.34082C2.85938 2.46191 2.33984 3.93848 0.644531 4.54004C0.453125 4.59473 0.316406 4.78613 0.316406 4.97754V6.83691C0.316406 6.97363 0.453125 7.11035 0.589844 7.11035H1.90234V11.0479C1.90234 12.4697 2.61328 14.876 5.92188 14.876C7.20703 14.876 8.21875 14.4111 8.57422 14.0283Z" fill="#2471FB"/>
</svg>
