<svg width="13" height="13" viewBox="0 0 13 13" fill="none" xmlns="http://www.w3.org/2000/svg">
<path d="M11.3125 0.750977H1.6875C0.949219 0.750977 0.375 1.35254 0.375 2.06348V11.6885C0.375 12.4268 0.949219 13.001 1.6875 13.001H11.3125C12.0234 13.001 12.625 12.4268 12.625 11.6885V2.06348C12.625 1.35254 12.0234 0.750977 11.3125 0.750977ZM4.3125 8.59863C3.35547 8.59863 2.58984 7.83301 2.58984 6.87598C2.58984 5.91895 3.35547 5.12598 4.3125 5.12598C5.26953 5.12598 6.0625 5.91895 6.0625 6.87598C6.0625 7.83301 5.26953 8.59863 4.3125 8.59863ZM8.66016 8.59863C7.70312 8.59863 6.9375 7.83301 6.9375 6.87598C6.9375 5.91895 7.70312 5.12598 8.66016 5.12598C9.61719 5.12598 10.4102 5.91895 10.4102 6.87598C10.4102 7.83301 9.61719 8.59863 8.66016 8.59863Z" fill="#2471FB"/>
</svg>
