<svg width="16" height="15" viewBox="0 0 16 15" fill="none" xmlns="http://www.w3.org/2000/svg">
<path d="M7.97742 0.016098C3.96375 0.016098 0.711792 3.26805 0.711792 7.28172C0.711792 11.2954 3.96375 14.5473 7.97742 14.5473C11.9911 14.5473 15.243 11.2954 15.243 7.28172C15.243 3.26805 11.9911 0.016098 7.97742 0.016098ZM10.6727 9.18602L10.0868 9.91844C9.9989 10.0356 9.88171 10.1235 9.70593 10.1235C9.61804 10.1235 9.50085 10.0649 9.44226 10.0063L7.47937 8.54149C7.1864 8.33641 7.03992 8.01414 7.03992 7.63329V3.06297C7.03992 2.8286 7.245 2.59422 7.50867 2.59422H8.44617C8.68054 2.59422 8.91492 2.8286 8.91492 3.06297V7.28172L10.6141 8.54149C10.702 8.62938 10.7899 8.74657 10.7899 8.89305C10.7899 9.01024 10.7313 9.12743 10.6727 9.18602Z" fill="#2471FB"/>
</svg>
