<svg width="12" height="15" viewBox="0 0 12 15" fill="none" xmlns="http://www.w3.org/2000/svg">
<path d="M5.51246 14.478C5.75917 14.8604 6.33339 14.8595 6.57887 14.4763C10.5619 8.7278 11.2992 8.12507 11.2958 5.99226C11.2911 3.09383 8.93581 0.745979 6.03738 0.75055C3.1116 0.755165 0.791149 3.11039 0.795785 6.00882C0.799196 8.14163 1.51109 8.74208 5.51246 14.478ZM6.04928 8.18804C4.81881 8.18998 3.86025 7.23446 3.85828 6.00399C3.85636 4.80087 4.81181 3.81499 6.04228 3.81305C7.2454 3.81115 8.23135 4.79397 8.23328 5.99709C8.23524 7.22756 7.2524 8.18614 6.04928 8.18804Z" fill="white"/>
</svg>
