<svg width="33" height="29" viewBox="0 0 33 29" fill="none" xmlns="http://www.w3.org/2000/svg">
<path d="M21.5651 11.2147H18.0651V7.71472C18.0651 7.46472 17.8151 7.21472 17.5651 7.21472H14.5651C14.2526 7.21472 14.0651 7.46472 14.0651 7.71472V11.2147H10.5651C10.2526 11.2147 10.0651 11.4647 10.0651 11.7147V14.7147C10.0651 15.0272 10.2526 15.2147 10.5651 15.2147H14.0651V18.7147C14.0651 19.0272 14.2526 19.2147 14.5651 19.2147H17.5651C17.8151 19.2147 18.0651 19.0272 18.0651 18.7147V15.2147H21.5651C21.8151 15.2147 22.0651 15.0272 22.0651 14.7147V11.7147C22.0651 11.4647 21.8151 11.2147 21.5651 11.2147ZM16.0651 0.214722C7.19009 0.214722 0.065094 6.08972 0.065094 13.2147C0.065094 16.2147 1.25259 18.9647 3.31509 21.1522C2.44009 23.5897 0.502594 25.7147 0.440094 25.7147C0.190094 25.9647 0.00259399 26.3397 0.00259399 26.7147C0.00259399 27.5897 0.690094 28.2147 1.50259 28.2147C1.50259 28.2147 1.50259 28.2147 1.56509 28.2147C5.37759 28.2147 8.44009 26.6522 10.2526 25.3397C12.0651 25.9022 14.0026 26.2147 16.0026 26.2147C16.0026 26.2147 16.0026 26.2147 16.0651 26.2147C24.8776 26.2147 32.0651 20.4022 32.0651 13.2147C32.0651 6.08972 24.8776 0.214722 16.0651 0.214722ZM16.0651 23.2147H16.0026C14.3151 23.2147 12.6901 22.9647 11.1276 22.4647L9.69009 22.0272L8.50259 22.9022C7.44009 23.6522 6.19009 24.2772 4.87759 24.7147C5.37759 23.9022 5.81509 23.0897 6.12759 22.2147L6.81509 20.4647L5.50259 19.0897C4.37759 17.9022 3.06509 15.9022 3.06509 13.2147C3.06509 7.71472 8.87759 3.21472 16.0651 3.21472C23.1901 3.21472 29.0651 7.71472 29.0651 13.2147C29.0651 18.7772 23.1901 23.2147 16.0651 23.2147Z" fill="white"/>
</svg>
