<svg width="41" height="32" viewBox="0 0 41 32" fill="none" xmlns="http://www.w3.org/2000/svg">
<path d="M14.7663 11.2057C14.2038 11.2057 13.7663 11.7057 13.7663 12.2057C13.7663 12.7682 14.2038 13.2057 14.7663 13.2057C15.2663 13.2057 15.7663 12.7682 15.7663 12.2057C15.7663 11.7057 15.2663 11.2057 14.7663 11.2057ZM11.7663 8.70575C10.8913 8.70575 10.2663 9.39325 10.2663 10.2057C10.2663 11.0807 10.8913 11.7057 11.7663 11.7057C12.5788 11.7057 13.2663 11.0807 13.2663 10.2057C13.2663 9.39325 12.5788 8.70575 11.7663 8.70575ZM39.7663 21.2057H38.9538C37.2038 21.2057 36.3288 19.0807 37.5788 17.8307L38.0788 17.2682C38.2663 17.0807 38.3913 16.8307 38.3913 16.5807C38.3913 16.0182 37.9538 15.5807 37.3913 15.5807C37.1413 15.5807 36.8913 15.7057 36.7038 15.8932L36.1413 16.3932C35.7663 16.7682 35.3288 17.0182 34.7663 17.0182C33.7038 17.0182 32.7663 16.2057 32.7663 15.0182V14.2057C32.7663 13.7057 32.2663 13.2057 31.7663 13.2057C31.2038 13.2057 30.7663 13.7057 30.7663 14.2057V15.0182C30.7663 16.2057 29.7663 17.0182 28.7038 17.0182C28.1413 17.0182 27.7038 16.7682 27.3288 16.3932L26.7663 15.8932C26.5788 15.7057 26.3288 15.5807 26.0788 15.5807C25.5163 15.5807 25.0788 16.0182 25.0788 16.5807C25.0788 16.8307 25.2038 17.0807 25.3913 17.2682L25.8913 17.8307C27.1413 19.0807 26.2663 21.2057 24.5163 21.2057H23.7663C23.2038 21.2057 22.7663 21.7057 22.7663 22.2057C22.7663 22.7682 23.2038 23.2057 23.7663 23.2057H24.5163C26.2663 23.2057 27.1413 25.3932 25.8913 26.6432L25.3913 27.2057C25.2038 27.3932 25.0788 27.6432 25.0788 27.8932C25.0788 28.4557 25.5163 28.8932 26.0788 28.8932C26.3288 28.8932 26.5788 28.7682 26.7663 28.5807L27.3288 28.0807C27.7038 27.7057 28.1413 27.4557 28.7038 27.4557C29.7663 27.4557 30.7663 28.2682 30.7663 29.4557V30.2057C30.7663 30.7682 31.2038 31.2057 31.7663 31.2057C32.2663 31.2057 32.7663 30.7682 32.7663 30.2057V29.4557C32.7663 28.2682 33.7038 27.4557 34.7663 27.4557C35.3288 27.4557 35.7663 27.7057 36.1413 28.0807L36.7038 28.5807C36.8913 28.7682 37.1413 28.8932 37.3913 28.8932C37.9538 28.8932 38.3913 28.4557 38.3913 27.8932C38.3913 27.6432 38.2663 27.3932 38.0788 27.2057L37.5788 26.6432C36.3288 25.3932 37.2038 23.2057 38.9538 23.2057H39.7663C40.2663 23.2057 40.7663 22.7682 40.7663 22.2057C40.7663 21.7057 40.2663 21.2057 39.7663 21.2057ZM29.7663 23.7057C28.8913 23.7057 28.2663 23.0807 28.2663 22.2057C28.2663 21.3932 28.8913 20.7057 29.7663 20.7057C30.5788 20.7057 31.2663 21.3932 31.2663 22.2057C31.2663 23.0807 30.5788 23.7057 29.7663 23.7057ZM22.3913 12.5807H23.3913C24.1413 12.5807 24.7663 11.9557 24.7663 11.2057C24.7663 10.5182 24.1413 9.89325 23.3913 9.89325H22.3913C20.0163 9.89325 18.8288 7.01825 20.5163 5.33075L21.2038 4.64325C21.4538 4.39325 21.6413 4.08075 21.6413 3.70575C21.6413 2.95575 21.0163 2.33075 20.2663 2.33075C19.8913 2.33075 19.5788 2.51825 19.3288 2.76825L18.6413 3.45575C18.1413 3.95575 17.5163 4.26825 16.7663 4.26825C15.3913 4.26825 14.0788 3.20575 14.0788 1.58075V0.58075C14.0788 -0.16925 13.4538 -0.79425 12.7038 -0.79425C12.0163 -0.79425 11.3913 -0.16925 11.3913 0.58075V1.58075C11.3913 3.20575 10.0788 4.26825 8.7038 4.26825C7.9538 4.26825 7.3288 3.95575 6.8288 3.45575L6.1413 2.76825C5.8913 2.51825 5.5788 2.33075 5.2038 2.33075C4.4538 2.33075 3.8288 2.95575 3.8288 3.70575C3.8288 4.08075 4.0163 4.39325 4.2663 4.64325L4.9538 5.33075C6.6413 7.01825 5.4538 9.89325 3.0788 9.89325H2.0788C1.3288 9.89325 0.766296 10.5182 0.766296 11.2057C0.766296 11.9557 1.3288 12.5807 2.0788 12.5807H3.0788C5.4538 12.5807 6.6413 15.4557 4.9538 17.1432L4.2663 17.8307C4.0163 18.0807 3.8288 18.3932 3.8288 18.7682C3.8288 19.5182 4.4538 20.1432 5.2038 20.1432C5.5788 20.1432 5.8913 19.9557 6.1413 19.7057L6.8288 19.0182C7.3288 18.5182 7.9538 18.2057 8.7038 18.2057C10.0788 18.2057 11.3913 19.2682 11.3913 20.8932V21.8932C11.3913 22.6432 12.0163 23.2057 12.7663 23.2057C13.4538 23.2057 14.0788 22.6432 14.0788 21.8932V20.8932C14.0788 19.2682 15.3913 18.2057 16.7663 18.2057C17.5163 18.2057 18.1413 18.5182 18.6413 19.0182L19.3288 19.7057C19.5788 19.9557 19.8913 20.1432 20.2663 20.1432C21.0163 20.1432 21.6413 19.5182 21.6413 18.7682C21.6413 18.3932 21.4538 18.0807 21.2038 17.8307L20.5163 17.1432C18.8288 15.4557 20.0163 12.5807 22.3913 12.5807ZM17.1413 13.0807C16.8913 13.7057 16.7038 14.4557 16.7038 15.2057C15.1413 15.2057 13.7663 15.8932 12.7663 16.8932C11.7038 15.8932 10.3288 15.2057 8.7663 15.2057C8.7663 13.6432 8.1413 12.2682 7.0788 11.2057C8.1413 10.2057 8.7663 8.83075 8.7663 7.26825C10.3288 7.26825 11.7038 6.58075 12.7663 5.58075C13.7663 6.58075 15.1413 7.26825 16.7038 7.26825C16.7038 8.83075 17.3288 10.2057 18.3913 11.2057C17.8288 11.7682 17.4538 12.3932 17.1413 13.0807Z" fill="white"/>
</svg>
