<svg width="15" height="15" viewBox="0 0 15 15" fill="none" xmlns="http://www.w3.org/2000/svg">
<path d="M13.6473 0.879217L10.8025 0.227453C10.5016 0.145896 10.1737 0.310476 10.0375 0.611473L8.72987 3.67604C8.62094 3.94965 8.70345 4.2503 8.9225 4.44136L10.5927 5.80592C9.61161 7.88559 7.89175 9.63831 5.76056 10.6534L4.39071 8.98758C4.19895 8.76913 3.89804 8.68757 3.62478 8.79738L0.56438 10.1147C0.263818 10.2519 0.127624 10.5802 0.182793 10.8809L0.84359 13.7236C0.926103 14.0243 1.1725 14.2153 1.50063 14.2148C8.50062 14.2038 14.1791 8.53464 14.1678 1.5073C14.1673 1.20652 13.9482 0.960773 13.6473 0.879217Z" fill="white"/>
</svg>
