<svg width="15" height="12" viewBox="0 0 15 12" fill="none" xmlns="http://www.w3.org/2000/svg">
<path d="M12.915 3.1673C13.4612 2.75628 13.9526 2.26332 14.3345 1.6885C13.8427 1.90802 13.2687 2.07299 12.6946 2.12858C13.2956 1.77217 13.7322 1.2246 13.9499 0.540663C13.4035 0.86965 12.775 1.11674 12.1463 1.25445C11.5985 0.681091 10.8597 0.354131 10.0394 0.355425C8.45347 0.357926 7.17037 1.64511 7.1729 3.23104C7.17325 3.44979 7.20095 3.6685 7.25598 3.88716C4.87686 3.7542 2.74222 2.60913 1.31759 0.888714C1.07215 1.29926 0.936218 1.79166 0.937093 2.33853C0.938667 3.32291 1.43225 4.19713 2.22605 4.71541C1.76117 4.6888 1.29615 4.58016 0.912986 4.36201L0.913029 4.38936C0.91526 5.78389 1.90147 6.93077 3.21441 7.20214C2.99574 7.25717 2.72239 7.31229 2.4763 7.31268C2.28489 7.31298 2.12079 7.28589 1.92934 7.25885C2.28664 8.40673 3.35436 9.22536 4.61222 9.25072C3.62907 10.0179 2.39934 10.4847 1.0595 10.4868C0.813408 10.4872 0.594614 10.4602 0.375821 10.4332C1.63494 11.2515 3.13959 11.714 4.78021 11.7114C10.0576 11.7031 12.9217 7.35089 12.9156 3.55011C12.9154 3.41339 12.9152 3.30402 12.915 3.1673Z" fill="white"/>
</svg>
