<svg width="15" height="14" viewBox="0 0 15 14" fill="none" xmlns="http://www.w3.org/2000/svg">
<path d="M14.0344 7.06623C14.0284 3.32014 10.9884 0.289779 7.24227 0.295688C3.49618 0.301597 0.465878 3.34154 0.47187 7.08763C0.477293 10.4782 2.94273 13.2908 6.19742 13.7778L6.18986 9.04736L4.4672 9.05008L4.46405 7.08133L6.18671 7.07861L6.18434 5.60205C6.18163 3.90674 7.19182 2.94811 8.72307 2.9457C9.48869 2.94449 10.2545 3.08 10.2545 3.08L10.2572 4.74797L9.40955 4.74931C8.56189 4.75064 8.28929 5.27061 8.29016 5.81748L8.29217 7.07529L10.1789 7.07231L9.88126 9.04154L8.29532 9.04404L8.30289 13.7745C11.556 13.2772 14.0398 10.4569 14.0344 7.06623Z" fill="white"/>
</svg>
