<svg width="13" height="14" viewBox="0 0 13 14" fill="none" xmlns="http://www.w3.org/2000/svg">
<path d="M3.85556 11.284C3.85403 10.327 3.05979 9.53525 2.10276 9.53676C1.11839 9.53831 0.35403 10.3325 0.355561 11.2895C0.357135 12.2739 1.12398 13.0383 2.10836 13.0368C3.06539 13.0352 3.85713 12.2684 3.85556 11.284ZM8.64281 12.5889C8.41728 8.35102 5.02123 4.96574 0.782607 4.75368C0.53647 4.72672 0.345414 4.94578 0.345808 5.19187L0.347907 6.50437C0.348257 6.72312 0.512625 6.91427 0.731419 6.94126C3.79422 7.12784 6.25909 9.58489 6.4554 12.6471C6.48309 12.8658 6.67476 13.0296 6.89351 13.0292L8.20601 13.0271C8.4521 13.0267 8.67054 12.835 8.64281 12.5889ZM12.5803 12.5827C12.3513 6.18465 7.20243 1.0248 0.776309 0.816185C0.530172 0.78923 0.339072 0.980938 0.33951 1.25437L0.341609 2.56687C0.341959 2.78562 0.506327 2.97677 0.752465 3.00373C5.97542 3.18689 10.1931 7.39118 10.3928 12.6135C10.4206 12.8596 10.6123 13.0507 10.831 13.0503L12.1435 13.0483C12.4169 13.0205 12.608 12.8288 12.5803 12.5827Z" fill="white"/>
</svg>
