<svg width="16" height="12" viewBox="0 0 16 12" fill="none" xmlns="http://www.w3.org/2000/svg">
<path d="M14.8028 2.36937C14.6377 1.71338 14.1173 1.19467 13.4881 1.0316C12.3118 0.705328 7.66339 0.71266 7.66339 0.71266C7.66339 0.71266 2.98761 0.720036 1.81236 1.05002C1.18371 1.21507 0.665015 1.73542 0.502003 2.39193C0.175715 3.54088 0.179651 6.00182 0.179651 6.00182C0.179651 6.00182 0.183544 8.43541 0.513549 9.61067C0.678661 10.2667 1.19898 10.758 1.82815 10.9211C3.00441 11.22 7.68018 11.2126 7.68018 11.2126C7.68018 11.2126 12.3286 11.2053 13.5039 10.9027C14.1326 10.7376 14.6513 10.2446 14.8143 9.58811C15.1406 8.41181 15.1367 5.97822 15.1367 5.97822C15.1367 5.97822 15.1327 3.51729 14.8028 2.36937ZM6.14412 8.20725L6.13704 3.77757L10.0234 5.98629L6.14412 8.20725Z" fill="white"/>
</svg>
