<svg width="13" height="13" viewBox="0 0 13 13" fill="none" xmlns="http://www.w3.org/2000/svg">
<path d="M11.1271 0.614563L1.50214 0.629745C0.763857 0.63091 0.190602 1.23338 0.191739 1.94431L0.207134 11.5693C0.208315 12.3076 0.783451 12.8809 1.52173 12.8797L11.1467 12.8645C11.8577 12.8634 12.4583 12.2883 12.4571 11.55L12.4417 1.92499C12.4406 1.21405 11.8381 0.613442 11.1271 0.614563ZM4.13969 8.47325C3.18266 8.47476 2.41581 7.71034 2.41428 6.75331C2.41275 5.79628 3.1771 5.00211 4.13413 5.0006C5.09116 4.99909 5.8854 5.79081 5.88693 6.74784C5.88846 7.70487 5.09672 8.47174 4.13969 8.47325ZM8.48734 8.46639C7.53031 8.4679 6.76346 7.70349 6.76193 6.74646C6.7604 5.78943 7.52475 4.99525 8.48178 4.99374C9.43881 4.99223 10.233 5.78395 10.2346 6.74098C10.2361 7.69801 9.44437 8.46488 8.48734 8.46639Z" fill="white"/>
</svg>
