<svg width="10" height="15" viewBox="0 0 10 15" fill="none" xmlns="http://www.w3.org/2000/svg">
<path d="M9.16715 13.9439C9.27635 13.8343 9.24875 13.6703 9.19384 13.5337L8.58948 11.7846C8.53457 11.648 8.4798 11.5934 8.37038 11.5662C8.28831 11.539 8.15163 11.5666 8.04234 11.6214C6.81266 12.1156 6.18293 11.597 6.1814 10.64L6.17558 7.00327L8.44511 6.99969C8.60917 6.99943 8.71837 6.88988 8.71811 6.72582L8.71456 4.51098C8.7143 4.34692 8.60475 4.23772 8.44069 4.23798L6.17116 4.24156L6.16609 1.06968C6.16587 0.932966 6.05628 0.79642 5.89221 0.796678L3.95081 0.799741C3.70472 0.800129 3.54092 0.96445 3.51405 1.26527C3.43382 2.3865 2.91665 3.86388 1.2223 4.46811C1.03098 4.5231 0.894568 4.71472 0.894874 4.90613L0.897848 6.7655C0.898067 6.90222 1.035 7.03872 1.17172 7.03851L2.48422 7.03644L2.49052 10.9739C2.49279 12.3958 3.20758 14.8009 6.51617 14.7957C7.80132 14.7937 8.8123 14.3272 9.16715 13.9439Z" fill="white"/>
</svg>
