<svg width="15" height="14" viewBox="0 0 15 14" fill="none" xmlns="http://www.w3.org/2000/svg">
<path d="M6.15192 8.22041C6.53473 8.21981 6.83503 7.91855 6.83442 7.53574C6.83385 7.18027 6.53254 6.85262 6.14973 6.85323C5.76692 6.85383 5.46666 7.18243 5.46723 7.5379C5.46785 7.92071 5.76911 8.22102 6.15192 8.22041ZM14.4349 6.84016C14.4289 3.09407 11.3889 0.0637049 7.64279 0.0696138C3.8967 0.0755227 0.866403 3.11546 0.872395 6.86155C0.878387 10.6076 3.91839 13.638 7.66448 13.6321C11.4106 13.6262 14.4409 10.5862 14.4349 6.84016ZM10.7964 5.7248C11.7534 5.72329 12.0562 7.00797 11.2093 7.44681C11.2368 7.58349 11.2644 7.72016 11.2647 7.88422C11.2669 9.3061 9.65554 10.4844 7.65945 10.4876C5.66336 10.4907 4.0482 9.31748 4.04593 7.89561C4.04567 7.73155 4.04545 7.59483 4.07257 7.45807C3.22422 7.0219 3.52294 5.73628 4.47997 5.73477C4.72607 5.73438 4.97233 5.84336 5.13666 6.00717C5.73756 5.59606 6.55744 5.32133 7.45974 5.29257L8.00281 2.9128C8.00268 2.83077 8.08462 2.77595 8.16669 2.80317L9.86257 3.15596C9.9716 2.93704 10.1901 2.79997 10.4636 2.79954C10.8464 2.79894 11.1476 3.09925 11.1483 3.48206C11.1488 3.83753 10.8485 4.13878 10.4657 4.13938C10.0829 4.13999 9.78164 3.83968 9.78107 3.48421L8.27659 3.13112L7.78786 5.29205C8.71759 5.31793 9.53834 5.59007 10.1406 5.99928C10.3317 5.83491 10.5503 5.72519 10.7964 5.7248ZM8.91473 8.89965C8.42337 9.41996 6.83739 9.39511 6.37176 8.90366C6.31699 8.84906 6.20761 8.84923 6.12567 8.90405C6.07111 8.98617 6.07129 9.09554 6.12606 9.15014C6.75597 9.77806 8.53332 9.77525 9.16121 9.14536C9.21581 9.09058 9.21564 8.98121 9.16082 8.89926C9.0787 8.8447 8.99667 8.84483 8.91473 8.89965ZM9.1302 6.84853C8.74739 6.84913 8.44713 7.17773 8.4477 7.5332C8.44831 7.91601 8.77692 8.21627 9.13238 8.21571C9.5152 8.21511 9.8155 7.91385 9.81488 7.53104C9.81432 7.17557 9.51301 6.84792 9.1302 6.84853Z" fill="white"/>
</svg>
